<?xml version="1.0" encoding="utf-8"?>
<!-- Generator: Adobe Illustrator 23.1.1, SVG Export Plug-In . SVG Version: 6.00 Build 0)  -->
<svg version="1.1" id="Layer_1" xmlns="http://www.w3.org/2000/svg" xmlns:xlink="http://www.w3.org/1999/xlink" x="0px" y="0px"
	 viewBox="0 0 297.2 300.9" style="enable-background:new 0 0 297.2 300.9;" xml:space="preserve">
<style type="text/css">
	.st0{fill:#A0A4A0;}
	.st1{fill:#28495D;}
	.st2{fill:#E76957;}
	.st3{fill:#3A7F6E;}
	.st4{fill:#BC8946;}
	.st5{fill:#326F60;}
</style>
<path class="st4" d="M199.1,134.6c-5.6,7-7,16.7-4.5,25.2c1,3.7,2.1,7.3,3.5,10.8c6.9,17.3,18.4,31.6,30.5,46.8
	c4.8,5.9,5.6,14.9-1.2,19.9c-8.5,6.1-18.1,7.6-27.8,7.7c-3.2,0-6.5-0.1-9.8-0.3c-32.7-3.4-63.8,3.6-96.8,9.3
	c-6.8,1.2-14.1,1.5-19.7-2.9c-3.2-2.5-4.4-6.8-4.6-10.9c-1.5-20.4,1.4-40.4,7.5-60.1c3.1-9.9,9.2-17.8,15.1-25.9
	c2.3-3.1,4.6-6.3,6.8-9.6c2.4-3.9,3.6-8,4.1-12.2c0.4-4.3,0-8.6-1.2-12.8c-1-3.4-2.2-7.1-3.3-10.8c-2.1-7.5-3.5-15.2-1.4-22.1
	c1.1-3.4,3-6.6,6.2-9.6c3.1-2.5,6-5.1,8.9-7.7c15-13.7,27.7-30.2,35.7-49.4c1.4-3.1,3.9-6.1,7.3-6.5c19.2-1.9,35.3,12.2,49.9,24
	c10.7,8.7,19.2,19.4,21.4,33.3c3.4,20.9-6.3,40.6-20.3,55.2C203.4,129,201.2,131.8,199.1,134.6z"/>
</svg>
