<?xml version="1.0" encoding="utf-8"?>
<!-- Generator: Adobe Illustrator 23.1.1, SVG Export Plug-In . SVG Version: 6.00 Build 0)  -->
<svg version="1.1" id="Layer_1" xmlns="http://www.w3.org/2000/svg" xmlns:xlink="http://www.w3.org/1999/xlink" x="0px" y="0px"
	 viewBox="0 0 297.2 300.9" style="enable-background:new 0 0 297.2 300.9;" xml:space="preserve">
<style type="text/css">
	.st0{fill:#E9D4CD;}
	.st1{fill:url(#SVGID_1_);}
	.st2{fill:#28495D;}
	.st3{fill:#CFAABC;}
	.st4{fill:#3A7F6E;}
	.st5{fill:#D0CFD4;}
	.st6{fill:#3E5CAA;}
	.st7{fill:#F6AD50;}
	.st8{fill:#A88776;}
</style>
<g>
	<g>
		<path class="st7" d="M156.7,135.9c-3.8-5.7-9.3-10.2-15.6-13c-3.1-1.4-6.4-2.4-9.8-3c-0.8-0.1-1.7-0.2-2.5-0.4l-2.6-0.2
			c-1.7-0.1-3.4-0.1-5.1-0.1c-13.7,0.1-27.4,0.7-41.1,0.2c-6.8-0.3-13.7-0.9-20.4-2.2c-6.7-1.3-13.4-3.2-19.6-6.3
			c-6.2-3-11.8-7.3-16.2-12.7c-4.3-5.5-7.4-11.9-9.2-18.5l0,0l0,0c-1.4-7.6-1.9-15.5-0.7-23.3c0.6-3.9,1.7-7.7,3.4-11.3
			c1.7-3.6,4.2-6.9,7.3-9.5c3-2.7,6.8-4.5,10.5-5.7c3.7-1.3,7.5-2.2,11.4-2.9c7.7-1.3,15.6-1.4,23.4-0.9c1.9,0.1,3.9,0.3,5.8,0.5
			l2.9,0.3c0.9,0.1,1.9,0.2,2.8,0.3c1.9,0.2,3.8,0.3,5.7,0.4l2.8,0.1l2.9,0c7.6,0,15.3-0.3,23-0.6c7.7-0.2,15.4-0.5,23.1-0.5
			c7.7,0,15.5,0.3,23.3,0.9c7.8,0.6,15.5,1.9,23.1,3.6l2.9,0.7c1,0.2,1.9,0.5,2.8,0.8l5.6,1.7c3.7,1.3,7.4,2.6,11,4.2
			c3.6,1.5,7.1,3.3,10.6,5.1c3.4,2,6.9,3.8,10.1,6c3.3,2.1,6.5,4.5,9.6,6.8l4.6,3.7l1.1,0.9l1.1,1l2.2,2l2.2,2
			c0.7,0.7,1.4,1.4,2.1,2.1c1.4,1.4,2.8,2.7,4.1,4.2l3.9,4.4c1.3,1.5,2.5,3,3.7,4.5c0.6,0.8,1.3,1.5,1.8,2.3l1.7,2.4
			c1.1,1.6,2.4,3.1,3.4,4.8l3.2,4.9l3,5c3.9,6.8,7.4,13.8,10.4,21c3.1,7.3,5,15.2,5.8,23c1.7,15.8-1.2,32-7.4,46.3l-1.1,2.7
			l-1.2,2.7c-0.8,1.8-1.6,3.5-2.5,5.3c-1.9,3.4-3.6,6.9-5.7,10.2c-3.9,6.7-8.5,13.1-13.2,19.2l-3.6,4.6l-3.8,4.4
			c-1.2,1.5-2.6,2.9-3.9,4.3c-1.3,1.4-2.6,2.9-3.9,4.3c-5.3,5.6-10.9,11-16.5,16.3c-5.7,5.2-11.4,10.4-17.2,15.4L208,284
			c-1.5,1.3-2.9,2.6-4.5,3.7c-3.2,2.3-6.9,4.1-10.7,5.1c-3.8,1-7.9,1.4-11.8,1.1c-3.9-0.2-7.9-1.1-11.4-3c-3.6-1.8-6.6-4.6-8.8-7.9
			c-2.2-3.3-3.7-7-4.7-10.7c-2-7.6-1.8-15.5-0.4-23.1c1.6-7.6,3.3-15,4.7-22.6c3-15.1,5.3-30.3,5.2-45.7c0-7.7-0.7-15.4-2.1-22.9
			c-0.4-1.9-0.8-3.8-1.2-5.6c-0.4-1.9-1-3.7-1.6-5.5C159.6,143,158.2,139.4,156.7,135.9z M156.7,135.9c1.5,3.5,2.9,7.1,4.1,10.8
			c0.6,1.8,1.2,3.7,1.6,5.5c0.4,1.9,0.9,3.7,1.2,5.6c1.5,7.6,2.1,15.3,2.2,22.9c0.1,15.4-2,30.7-4.8,45.8c-1.4,7.6-3,15.1-4.5,22.6
			c-1.3,7.5-1.3,15.3,0.8,22.6c1,3.6,2.5,7.2,4.7,10.2c2.1,3.1,5,5.6,8.3,7.2c3.3,1.6,7,2.4,10.8,2.5c3.7,0.2,7.5-0.2,11.1-1.2
			c3.6-1,7-2.7,9.9-4.9c1.5-1.1,2.8-2.4,4.3-3.7l4.3-3.9c5.7-5.2,11.3-10.4,16.8-15.7c5.5-5.4,10.9-10.8,16-16.4
			c1.3-1.4,2.5-2.9,3.8-4.3c1.3-1.4,2.5-2.9,3.7-4.3l3.6-4.4l3.5-4.5c4.5-6.1,8.8-12.4,12.5-19c2-3.2,3.6-6.7,5.3-10.1
			c0.8-1.7,1.5-3.5,2.3-5.2l1.1-2.6l1-2.6c5.7-13.9,8.2-29.1,6.5-43.9c-0.9-7.4-2.8-14.6-5.7-21.5c-2.9-7-6.3-13.7-10.1-20.3
			l-2.9-4.8l-3.1-4.7c-1-1.6-2.2-3.1-3.3-4.6l-1.7-2.3c-0.6-0.8-1.2-1.5-1.8-2.2c-4.7-5.9-9.9-11.4-15.4-16.5l-2.1-1.9l-1-1
			l-1.1-0.9l-4.4-3.6c-3-2.2-6-4.5-9.2-6.5c-3.1-2.1-6.4-3.9-9.7-5.8c-3.4-1.7-6.7-3.5-10.2-4.9c-3.4-1.6-7-2.8-10.5-4.1l-5.4-1.7
			c-0.9-0.3-1.8-0.5-2.7-0.8l-2.7-0.7c-7.3-1.8-14.8-3.1-22.3-3.8c-15.1-1.5-30.4-1.4-45.8-1.1c-7.7,0.1-15.4,0.2-23.2,0.1l-2.9,0
			c-1-0.1-2-0.1-2.9-0.2c-1.9-0.1-3.9-0.3-5.8-0.5c-1-0.1-1.9-0.2-2.9-0.4l-2.8-0.4c-1.9-0.2-3.8-0.5-5.7-0.6
			c-7.6-0.7-15.2-0.7-22.6,0.4c-3.7,0.6-7.4,1.4-11,2.6c-1.8,0.6-3.5,1.2-5.1,2.1c-1.6,0.8-3.2,1.8-4.6,3c-2.8,2.3-5.1,5.3-6.8,8.6
			c-1.7,3.3-2.8,6.9-3.4,10.6c-1.3,7.4-1,15.1,0.2,22.6l0-0.1c1.7,6.5,4.5,12.8,8.6,18.1c4.2,5.3,9.5,9.6,15.6,12.7
			c6,3.2,12.6,5.1,19.3,6.5c6.7,1.3,13.5,2,20.3,2.4c6.8,0.4,13.7,0.4,20.5,0.4c6.8-0.1,13.7-0.2,20.5-0.2c1.7,0,3.4,0,5.1,0.1
			l2.6,0.2c0.8,0.1,1.7,0.2,2.5,0.4c3.4,0.6,6.7,1.6,9.8,3.1C147.4,125.7,152.9,130.2,156.7,135.9z"/>
	</g>
</g>
</svg>
