<?xml version="1.0" encoding="utf-8"?>
<!-- Generator: Adobe Illustrator 23.1.1, SVG Export Plug-In . SVG Version: 6.00 Build 0)  -->
<svg version="1.1" id="Layer_1" xmlns="http://www.w3.org/2000/svg" xmlns:xlink="http://www.w3.org/1999/xlink" x="0px" y="0px"
	 viewBox="0 0 297.2 300.9" style="enable-background:new 0 0 297.2 300.9;" xml:space="preserve">
<style type="text/css">
	.st0{fill:#E9D4CD;}
	.st1{fill:url(#SVGID_1_);}
	.st2{fill:#28495D;}
	.st3{fill:#CFAABC;}
	.st4{fill:#3A7F6E;}
	.st5{fill:#D0CFD4;}
	.st6{fill:#3E5CAA;}
	.st7{fill:#F6AD50;}
	.st8{fill:#A88776;}
</style>
<g>
	<g>
		<path class="st7" d="M259.9,171.9c1.6,4.5,2.9,9.2,3.6,13.9c0.7,4.7,0.8,9.6,0.2,14.3l0,0l0,0c-1.5,7.8-3.7,15.4-6.5,22.8
			c-2.9,7.4-6.3,14.6-11.3,20.9c-2.5,3.1-5.4,5.9-8.8,8c-3.4,2.1-7.3,3.5-11.3,3.8c-4,0.4-8.1-0.4-11.8-1.9c-3.7-1.5-7.1-3.7-10.4-6
			c-3.2-2.3-6.3-4.9-9.4-7.3c-3.1-2.4-6.3-4.8-9.5-7c-3.2-2.2-6.6-4.2-10.2-5.6c-3.6-1.4-7.4-2.2-11.2-2.2c-1,0.1-1.9,0.1-2.9,0.2
			l-2.9,0.4c-1,0.1-1.9,0.4-2.8,0.6l-1.4,0.4c-0.5,0.1-0.9,0.2-1.4,0.4l-2.7,1c-0.9,0.3-1.8,0.8-2.6,1.2c-1.8,0.7-3.4,1.8-5.1,2.7
			c-6.5,4.1-12.3,9.5-17.9,15c-5.6,5.6-11.1,11.3-17.2,16.6c-1.6,1.3-3.3,2.6-5.1,3.6c-1.8,1.1-3.6,2-5.5,2.9
			c-3.9,1.6-8.1,2.7-12.5,2.4c-2.2-0.2-4.5-0.7-6.5-1.7c-1.1-0.4-2-1.1-2.9-1.8c-0.4-0.4-0.9-0.7-1.3-1.1l-0.6-0.6
			c-0.2-0.2-0.4-0.4-0.6-0.6c-3-3.2-5.1-7-6.5-11c-2.9-8-3-16.4-3.1-24.3c-0.2-16,1.3-31.8-0.6-47.1c-0.5-3.8-1.1-7.6-2.2-11.3
			c-1-3.7-2.1-7.5-3.3-11.3c-2.3-7.5-4.8-15.1-6.7-23c-1.9-7.8-3.2-16-3.1-24.2c0-1,0.1-2.1,0.1-3.1l0.1-1.5c0-0.5,0.1-1.1,0.2-1.7
			c0.3-2.2,0.8-4.3,1.7-6.4c0.4-1,0.9-2,1.4-3c0.6-1,1.1-1.9,1.8-2.8c0.6-0.9,1.4-1.8,2.1-2.6c0.8-0.8,1.6-1.6,2.6-2.3
			c3.6-2.9,8.8-4.3,13.4-3.2l3,0.6c0.9,0.2,1.8,0.4,2.7,0.5c1.8,0.2,3.7,0.5,5.6,0.4c1.9,0.1,3.7-0.1,5.6-0.2
			c0.9-0.1,1.8-0.3,2.8-0.4c0.5-0.1,0.9-0.1,1.4-0.2l1.4-0.3c3.7-0.8,7.2-2.2,10.6-3.8c6.8-3.3,13.1-7.9,18.8-13.1
			c2.8-2.6,5.5-5.6,8.4-8.2l8.6-8.2c2.9-2.7,5.8-5.5,8.7-8.1c1.5-1.3,3-2.6,4.6-3.9l4.6-3.8c6.1-5,12.4-10.1,19.4-14.1
			c3.5-2,7.2-3.7,11.1-4.9c1-0.3,2-0.6,2.9-0.9c1-0.3,2-0.4,3.1-0.6c2.1-0.3,4.1-0.4,6.2-0.2c4.2,0.4,8.3,1.9,11.5,4.8
			c3.1,3,4.8,7.4,4.5,11.6c0,1.1-0.2,2.1-0.4,3.1c-0.2,1-0.5,1.9-0.7,2.9c-0.5,1.9-1.1,3.8-1.7,5.7c-1.2,3.8-2.5,7.5-3.8,11.3
			c-2.5,7.5-5.1,15-6.4,22.8c-0.6,3.9-0.9,7.8-0.7,11.7c0.2,3.9,1.1,7.8,2.7,11.4c1.6,3.6,3.8,6.9,6.6,9.7c2.7,2.8,6,5.1,9,7.6
			c6.1,5,12,10.4,17.4,16.1c5.4,5.8,10.5,11.9,15.1,18.3l0,0C255,161.1,257.9,166.3,259.9,171.9z M259.9,171.9
			c-2.1-5.6-5-10.8-8.1-15.8l0,0c-9.3-12.8-20.3-24.4-32.7-34.2c-1.5-1.2-3.1-2.4-4.7-3.6c-0.8-0.6-1.6-1.2-2.3-1.9
			c-0.7-0.7-1.5-1.3-2.2-2c-2.8-2.8-5.2-6.1-6.8-9.8c-1.7-3.6-2.7-7.6-2.9-11.6c-0.3-4-0.1-8,0.5-11.9c1.1-7.9,3.5-15.5,5.9-23.1
			c1.2-3.8,2.4-7.5,3.5-11.3c0.6-1.9,1.1-3.8,1.5-5.7c0.4-1.9,1-3.8,1-5.6c0.1-3.7-1.4-7.3-4.1-9.8c-2.7-2.4-6.4-3.7-10.1-4
			c-1.9-0.1-3.7,0-5.6,0.3c-0.9,0.2-1.9,0.3-2.8,0.6c-0.9,0.3-1.8,0.6-2.7,0.9c-3.6,1.3-7.1,3-10.5,4.9c-6.7,4-12.7,9-18.6,14.2
			l-4.5,3.9c-1.5,1.3-2.9,2.6-4.4,3.9c-2.9,2.7-5.7,5.4-8.5,8.2l-8.4,8.4c-2.9,2.7-5.4,5.7-8.4,8.5c-5.9,5.6-12.4,10.7-19.8,14.3
			c-3.7,1.8-7.6,3.4-11.6,4.4l-1.5,0.4c-0.5,0.1-1,0.2-1.5,0.3c-1,0.2-2.1,0.4-3.1,0.5c-2.1,0.2-4.2,0.4-6.3,0.3
			c-2.1,0.1-4.2-0.2-6.3-0.4C73,95,72,94.8,71,94.6c-1-0.2-2.2-0.4-2.9-0.5c-1.6-0.3-3.2-0.2-4.7,0.1c-0.4,0.1-0.8,0.2-1.1,0.3
			L61.2,95c-0.7,0.4-1.4,0.8-2,1.3c-0.7,0.5-1.2,1.1-1.8,1.7c-0.5,0.7-1.1,1.3-1.6,2c-0.5,0.7-0.9,1.5-1.4,2.2
			c-0.4,0.8-0.8,1.6-1.1,2.4c-0.7,1.6-1.1,3.4-1.3,5.1c0,0.4-0.1,0.8-0.1,1.3l0,1.4c0,0.9-0.1,1.9-0.1,2.8c0,7.6,1.2,15.2,3.1,22.8
			c1.8,7.6,4.2,15.1,6.5,22.7c1.2,3.8,2.3,7.6,3.3,11.5c1.1,4,1.7,8,2.3,12c1,8.1,1.1,16.2,0.8,24.1c-0.2,8-0.7,15.8-0.7,23.7l0,5.9
			c0,1.9,0.1,3.8,0.3,5.7c0.3,3.8,1,7.5,2.1,11c1.2,3.5,2.9,6.8,5.3,9.4c0.1,0.2,0.3,0.3,0.4,0.5l0.5,0.4l0.9,0.9
			c0.7,0.4,1.3,1,2.1,1.3c1.5,0.8,3.2,1.2,4.9,1.4c3.5,0.3,7.1-0.5,10.6-1.8c3.5-1.4,6.8-3.3,9.7-5.7c6-4.9,11.6-10.5,17.3-16
			c5.7-5.5,11.8-10.9,18.7-15.1c1.8-1,3.5-2,5.4-2.8c0.9-0.4,1.8-0.9,2.8-1.2l2.9-1c3.9-1.1,7.9-1.8,12.1-1.8c4.1,0,8.2,1,12,2.6
			c3.8,1.6,7.2,3.7,10.5,6c3.3,2.3,6.3,4.8,9.4,7.3c3.1,2.5,6.1,5.1,9.2,7.4c3.1,2.4,6.4,4.5,10,6.1c3.6,1.5,7.5,2.4,11.4,2
			c3.9-0.3,7.7-1.5,11-3.5c3.4-2,6.3-4.7,8.8-7.8c5-6.1,8.6-13.3,11.5-20.6c2.9-7.4,5.1-15,6.6-22.8l0,0c0.6-4.8,0.5-9.6-0.2-14.3
			C262.8,181,261.6,176.4,259.9,171.9z"/>
	</g>
</g>
</svg>
