<?xml version="1.0" encoding="utf-8"?>
<!-- Generator: Adobe Illustrator 23.1.1, SVG Export Plug-In . SVG Version: 6.00 Build 0)  -->
<svg version="1.1" id="Layer_1" xmlns="http://www.w3.org/2000/svg" xmlns:xlink="http://www.w3.org/1999/xlink" x="0px" y="0px"
	 viewBox="0 0 297.2 300.9" style="enable-background:new 0 0 297.2 300.9;" xml:space="preserve">
<style type="text/css">
	.st0{fill:#E9D4CD;}
	.st1{fill:url(#SVGID_1_);}
	.st2{fill:#28495D;}
	.st3{fill:#CFAABC;}
	.st4{fill:#3A7F6E;}
	.st5{fill:#D0CFD4;}
	.st6{fill:#3E5CAA;}
	.st7{fill:#F6AD50;}
	.st8{fill:#A88776;}
</style>
<g>
	<g>
		<path class="st7" d="M278.5,142.2c-3.7,2.7-7.8,4.8-12.1,6.5c-4.3,1.7-8.7,2.9-13.1,4.2c-4.4,1.4-8.7,2.9-12.8,4.8
			c-4.1,1.9-8.2,4.2-11.6,7.1c-3.5,2.9-6.6,6.4-8.6,10.5c-1,2-1.6,4.3-1.6,6.5c-0.1,2.3,0.3,4.5,0.8,6.7c1.1,4.4,3.1,8.6,4.8,12.8
			c0.9,2.1,1.6,4.3,2.3,6.5l2.2,6.5c2.9,8.7,5.2,17.6,6.1,26.8c0.4,4.6,0.5,9.2-0.1,13.9c-0.6,4.6-1.9,9.2-4.2,13.3
			c-2.3,4.1-5.8,7.6-9.9,10c-1,0.6-2.1,1.1-3.1,1.6c-1.1,0.4-2.2,0.9-3.2,1.3c-2.1,0.9-4.3,1.7-6.5,2.4c-4.4,1.4-9,2.4-13.5,3.2
			c-4.5,0.8-9.1,1.4-13.7,1.8c-2.3,0.2-4.6,0.3-6.9,0.4c-2.3,0.1-4.6,0.1-7,0c-2.4-0.2-4.8-0.6-7.1-1.3c-1.2-0.4-2.3-0.8-3.4-1.2
			c-1.2-0.5-2.1-1.2-3.2-1.7c-4.1-2.5-7.8-5.4-11.1-8.8c-3.3-3.4-6.2-7.1-8.9-10.9c-5.3-7.7-9.4-16-13.6-24.2
			c-4.2-8.1-8.3-16.2-13.7-23.1c-2.7-3.4-5.9-6.4-9.5-8.4c-1.8-1.1-3.7-1.7-5.6-2.3c-0.5-0.1-1-0.2-1.5-0.2c-0.5-0.1-1-0.2-1.5-0.2
			l-1.5,0c-0.5,0-1,0-1.5,0.1l-1.5,0.2l-0.8,0.1c-0.3,0-0.5,0.1-0.8,0.2c-1.1,0.2-2.2,0.4-3.3,0.7l-6.7,1.5c-4.5,1-9.2,1.9-14.1,2
			c-2.5,0-4.9-0.1-7.4-0.6c-0.6-0.1-1.2-0.3-1.8-0.4l-0.9-0.2l-0.9-0.3c-0.6-0.2-1.2-0.4-1.8-0.6l-1.7-0.7c-2.2-0.9-4.5-2.3-6.5-3.8
			c-2-1.5-3.8-3.4-5.4-5.3c-3.1-3.9-5.3-8.4-6.9-12.9c-1.6-4.6-2.6-9.3-3.2-14c-0.2-1.2-0.3-2.4-0.3-3.7c-0.1-1.2-0.1-2.4-0.1-3.6
			c0-2.4,0.2-4.8,0.6-7.2c0.7-4.8,2.1-9.6,4.4-13.9c2.2-4.4,5.2-8.3,8.5-11.8c1.7-1.7,3.4-3.4,5.2-4.9c1.9-1.6,3.7-3,5.5-4.4
			c7.3-5.6,14.8-10.7,20.4-17.3c2.8-3.3,5.1-7,6.6-10.9l0.6-1.5l0.5-1.6c0.3-1.1,0.6-2.2,0.9-3.2c0.6-2.2,1.1-4.4,1.7-6.6
			c2.1-8.8,4-17.9,7.1-26.7c3-8.8,7.4-17.5,13.8-24.5c3.2-3.5,6.9-6.5,10.8-9.1c3.9-2.6,8.2-4.7,12.6-6.4c4.4-1.7,9-2.8,13.7-3.3
			c0.6-0.1,1.2-0.1,1.8-0.1c0.6,0,1.2-0.1,1.8-0.1c0.6,0,1.2-0.1,1.8,0l1.8,0.1c2.4,0.2,4.8,0.8,7.1,1.7c2.3,0.8,4.4,2,6.4,3.3
			c2,1.3,3.9,2.8,5.6,4.4c3.5,3.2,6.4,6.8,9.1,10.6c5.3,7.7,8.9,16.2,13.8,23.8c2.4,3.8,5.1,7.5,8.4,10.5c3.3,3,7.2,5.3,11.5,6.7
			c4.3,1.4,8.8,2.1,13.3,2.4c4.5,0.2,9.1,0,13.7-0.2c4.6-0.2,9.2-0.4,13.8-0.2c2.3,0.1,4.6,0.3,6.9,0.6c1.1,0.2,2.3,0.4,3.4,0.7
			c0.6,0.1,1.1,0.2,1.7,0.4l1.7,0.5c4.4,1.3,8.6,3.4,12.4,6c3.8,2.6,7.1,5.9,9.8,9.6c1.4,1.8,2.5,3.9,3.5,5.9c1,2.1,1.8,4.2,2.6,6.4
			c0.8,2.2,1.5,4.3,2,6.6c0.3,1.1,0.6,2.2,0.8,3.3c0.2,1.1,0.4,2.3,0.5,3.4c0.5,4.5,0.2,9.2-1.4,13.6
			C285.2,135.8,282.1,139.4,278.5,142.2z M278.5,142.2c3.6-2.8,6.6-6.5,8.2-10.8c1.5-4.3,1.8-9,1.3-13.5c-0.1-1.1-0.3-2.3-0.5-3.4
			c-0.2-1.1-0.5-2.2-0.8-3.3c-0.6-2.2-1.3-4.4-2.1-6.5c-0.8-2.1-1.6-4.3-2.6-6.3c-1-2-2.1-4-3.5-5.9c-1.3-1.9-2.9-3.6-4.5-5.2
			c-1.7-1.5-3.4-3-5.3-4.3c-3.8-2.6-7.9-4.5-12.3-5.8l-1.6-0.5c-0.5-0.1-1.1-0.2-1.7-0.4c-1.1-0.3-2.2-0.4-3.4-0.6
			c-2.3-0.3-4.5-0.5-6.8-0.6c-4.6-0.1-9.1,0.1-13.7,0.4c-4.6,0.3-9.2,0.5-13.8,0.4c-4.6-0.1-9.2-0.8-13.7-2.1
			c-4.5-1.4-8.7-3.7-12.2-6.7c-3.5-3.1-6.4-6.8-9-10.6c-5.1-7.7-8.9-16.1-14.2-23.4c-2.6-3.6-5.6-7.1-8.9-10c-1.7-1.5-3.4-2.8-5.3-4
			c-1.9-1.2-3.8-2.2-5.9-2.9c-2-0.7-4.2-1.2-6.3-1.3c-1.1,0-2.1-0.1-3.2,0c-0.5,0-1.1,0.1-1.7,0.1c-0.6,0-1.1,0.1-1.7,0.2
			c-4.4,0.5-8.7,1.7-12.8,3.3c-4.1,1.6-8.1,3.7-11.7,6.3c-3.7,2.5-7,5.4-9.9,8.7c-5.8,6.6-9.7,14.7-12.5,23.2
			c-2.8,8.5-4.5,17.4-6.5,26.4c-0.5,2.2-1,4.5-1.6,6.7c-0.3,1.1-0.6,2.2-0.9,3.4L77.1,95l-0.6,1.7c-1.7,4.6-4.3,8.9-7.4,12.6
			c-6.2,7.4-13.9,12.9-21.1,18.4c-1.8,1.4-3.6,2.8-5.2,4.2c-1.7,1.5-3.3,3-4.7,4.6c-3,3.2-5.5,6.6-7.5,10.4
			c-1.9,3.8-3.1,7.9-3.7,12.2c-0.3,2.1-0.5,4.3-0.5,6.4c0,1.1,0,2.2,0.1,3.2c0,1.1,0.2,2.1,0.3,3.2c0.6,4.4,1.5,8.7,2.9,12.8
			c1.4,4.1,3.3,7.9,5.9,11.2c2.6,3.3,5.8,5.8,9.6,7.5l1.4,0.6c0.5,0.2,1,0.3,1.5,0.5l0.7,0.2l0.7,0.2c0.5,0.1,1,0.2,1.5,0.3
			c2,0.4,4.1,0.5,6.2,0.5c4.3-0.1,8.6-0.8,13-1.8l6.7-1.4c1.1-0.2,2.3-0.5,3.4-0.7c0.3-0.1,0.6-0.1,0.9-0.2l0.9-0.1l1.9-0.2
			c0.6-0.1,1.3-0.1,1.9,0l1.9,0.1c0.6,0,1.3,0.2,1.9,0.3c0.6,0.1,1.3,0.2,1.9,0.3c2.5,0.7,4.9,1.6,7,2.9c4.3,2.6,7.9,6.1,10.8,9.8
			c3,3.8,5.4,7.8,7.6,11.9c2.2,4.1,4.2,8.2,6.2,12.4c4,8.2,7.9,16.4,12.8,24c2.5,3.7,5.2,7.3,8.2,10.5c3,3.2,6.5,6.1,10.2,8.4
			c0.9,0.5,1.8,1.2,2.8,1.6c1,0.4,2,0.8,3,1.2c2.1,0.7,4.2,1.1,6.3,1.3c2.1,0.2,4.5,0.2,6.7,0.2c2.3,0,4.5-0.1,6.8-0.3
			c4.5-0.3,9-0.8,13.5-1.5c4.5-0.7,8.9-1.6,13.2-2.8c2.2-0.6,4.3-1.4,6.4-2.2c1.1-0.5,2.1-0.8,3.2-1.2c1-0.5,2-0.9,3-1.5
			c3.9-2.1,7.1-5.3,9.4-9.1c2.3-3.8,3.6-8.2,4.3-12.6c0.7-4.5,0.7-9,0.4-13.5c-0.7-9.1-2.8-18-5.6-26.7l-2.1-6.5
			c-0.7-2.2-1.4-4.3-2.2-6.5c-1.6-4.3-3.5-8.5-4.6-12.9c-0.5-2.2-0.9-4.5-0.8-6.9c0.1-2.3,0.7-4.6,1.7-6.7c2.1-4.1,5.2-7.6,8.7-10.5
			c3.5-2.9,7.6-5.2,11.7-7.1c4.2-1.9,8.5-3.4,12.9-4.7c4.4-1.3,8.8-2.5,13.1-4.2C270.7,147,274.8,145,278.5,142.2z"/>
	</g>
</g>
</svg>
