<?xml version="1.0" encoding="utf-8"?>
<!-- Generator: Adobe Illustrator 23.1.1, SVG Export Plug-In . SVG Version: 6.00 Build 0)  -->
<svg version="1.1" id="Layer_1" xmlns="http://www.w3.org/2000/svg" xmlns:xlink="http://www.w3.org/1999/xlink" x="0px" y="0px"
	 viewBox="0 0 297.2 300.9" style="enable-background:new 0 0 297.2 300.9;" xml:space="preserve">
<style type="text/css">
	.st0{fill:#E9D4CD;}
	.st1{fill:url(#SVGID_1_);}
	.st2{fill:#28495D;}
	.st3{fill:#CFAABC;}
	.st4{fill:#3A7F6E;}
	.st5{fill:#D0CFD4;}
	.st6{fill:#3E5CAA;}
	.st7{fill:#F6AD50;}
	.st8{fill:#A88776;}
</style>
<g>
	<g>
		<path class="st7" d="M205.6,152.1c-6.3,12-12.3,24.1-18.8,35.9c-6.5,11.8-13.5,23.4-21.8,34.1c-8.3,10.7-17.8,20.6-29.1,28.2
			c-5.6,3.8-11.7,7.1-18,9.8c-0.8,0.3-1.6,0.7-2.4,1l-2.4,0.9c-0.8,0.3-1.6,0.6-2.5,0.9l-1.4,0.4c-0.5,0.1-1,0.1-1.4,0.2
			c-1.9,0.1-3.9-0.3-5.6-1.2c-1.7-0.9-3.1-2.2-4.3-3.6c-2.3-2.9-3.7-6.2-4.6-9.7c-0.4-1.8-0.6-3.4-0.9-5.1l-0.9-5
			c-1.2-6.6-2.4-13.3-3.8-19.8c-2.8-13.1-6.4-26.1-11.7-38.2c-0.7-1.5-1.3-3-2.1-4.5c-0.8-1.5-1.5-3-2.3-4.4l-5-8.8
			c-3.3-5.9-6.6-11.9-9.4-18.2c-5.7-12.5-9.6-26-10.8-39.8c-0.3-3.5-0.4-6.9-0.3-10.4c0-1.7,0.1-3.5,0.2-5.2c0-0.4,0-0.9,0.1-1.3
			l0.2-1.4c0.1-0.9,0.3-1.8,0.5-2.7c0.7-3.5,1.9-7.1,3.8-10.4c1-1.6,2-3.1,3.4-4.6c1.4-1.5,3.1-2.7,4.9-3.6c1.8-0.9,3.8-1.5,5.7-1.7
			c1.9-0.2,3.9-0.2,5.7,0c3.7,0.4,7.2,1.4,10.5,2.8c6.6,2.6,12.4,6.4,18.2,9.6c5.8,3.2,11.7,6,17.9,6.8c1.6,0.2,3.2,0.3,4.7,0.3
			c1.5-0.1,3-0.3,4.4-0.7c0.7-0.2,1.4-0.5,2.1-0.8c0.7-0.3,1.4-0.6,2-1.1c1.3-0.8,2.6-1.7,3.9-2.7c2.5-2,4.7-4.4,7-6.9
			c1.2-1.2,2.2-2.5,3.3-3.7c1.1-1.3,2.1-2.6,3.2-3.9c4.2-5.2,8.4-10.6,13.4-15.4c2.5-2.4,5.1-4.7,8-6.6c2.9-1.9,6.1-3.5,9.4-4.6
			c0.8-0.3,1.7-0.5,2.5-0.7l1.3-0.3l1.3-0.2l1.3-0.2l1.3-0.1l1.3-0.1l1.3,0.1c3.6,0.3,7,1.6,9.9,3.5c3,1.9,5.5,4.3,7.7,7
			c2.2,2.7,4.1,5.5,5.7,8.5c3.1,6.1,5.4,12.5,6.8,19.2c1.4,6.6,2,13.4,1.9,20.2c-0.1,6.8-1.1,13.5-2.4,20.1
			c-1.3,6.6-3.3,13.1-5.5,19.5C210.9,139.7,208.3,145.9,205.6,152.1z M205.6,152.1c2.7-6.2,5.3-12.4,7.5-18.8
			c2.2-6.4,4.1-12.9,5.4-19.5c2.7-13.2,3-27,0-40.1c-1.5-6.5-4-12.9-7.2-18.7c-1.7-2.9-3.6-5.6-5.7-8.1c-2.2-2.5-4.6-4.7-7.4-6.4
			c-2.8-1.7-5.9-2.8-9.1-2.9c-3.2-0.2-6.3,0.6-9.5,1.6c-3.1,1.1-6,2.7-8.6,4.5c-2.7,1.8-5.1,4.1-7.4,6.4
			c-4.6,4.7-8.6,10.2-12.7,15.5c-1,1.3-2.1,2.7-3.1,4c-1.1,1.3-2.2,2.7-3.3,3.9c-2.2,2.6-4.5,5.2-7.2,7.5c-1.3,1.2-2.8,2.3-4.3,3.2
			c-0.8,0.5-1.6,0.9-2.4,1.3c-0.9,0.4-1.7,0.8-2.6,1c-1.8,0.6-3.7,0.9-5.5,1.1c-1.9,0.1-3.6,0-5.4-0.2c-3.6-0.4-7.1-1.3-10.4-2.5
			c-3.3-1.2-6.5-2.8-9.5-4.4c-6-3.2-11.7-6.8-17.7-9c-3-1.2-6-2-9-2.3c-3-0.3-5.9,0-8.3,1.2c-1.2,0.6-2.3,1.4-3.2,2.4
			c-0.9,1-1.9,2.3-2.6,3.6C54.5,79,53.5,82,52.9,85c-0.2,0.8-0.3,1.5-0.4,2.3l-0.1,1.1c0,0.4,0,0.8-0.1,1.2
			c-0.1,1.6-0.2,3.2-0.2,4.9c-0.1,3.3,0.1,6.6,0.4,9.8c1.1,13.1,4.7,25.9,10.1,38c2.7,6.1,5.7,12,8.9,17.9l4.9,8.9
			c0.8,1.5,1.5,3.1,2.3,4.6c0.8,1.5,1.4,3.1,2.1,4.7c5.3,12.7,8.6,26.1,11,39.4c1.2,6.7,2.3,13.4,3.2,20.1l0.7,5
			c0.2,1.6,0.5,3.4,0.8,4.9c0.7,3.1,1.9,6.1,3.7,8.6c1.8,2.5,4.5,4.1,7.4,4c0.4,0,0.7,0,1.1-0.1l1.1-0.3c0.7-0.2,1.6-0.5,2.3-0.7
			l2.4-0.8c0.8-0.3,1.6-0.6,2.3-0.9c6.2-2.4,12.2-5.4,17.8-9.1c11.3-7.2,21.1-16.7,29.5-27.2c8.4-10.5,15.7-22,22.3-33.7
			C193.2,176.1,199.2,164,205.6,152.1z"/>
	</g>
</g>
</svg>
